<?xml version="1.0" encoding="utf-8"?>
<!-- Generator: Adobe Illustrator 23.0.3, SVG Export Plug-In . SVG Version: 6.00 Build 0)  -->
<svg version="1.1" id="レイヤー_1" xmlns="http://www.w3.org/2000/svg" xmlns:xlink="http://www.w3.org/1999/xlink" x="0px"
	 y="0px" viewBox="0 0 552.3 194.2" style="enable-background:new 0 0 552.3 194.2;" xml:space="preserve">
<style type="text/css">
	.st0{fill:#FFFFFF;stroke:#FF1F74;stroke-width:13;stroke-miterlimit:10;}
	.st1{fill:#FF1F74;}
</style>
<title>clickhere</title>
<g>
	<g id="レイヤー_1-2">
		<path class="st0" d="M98.1,15.2h361.1c46.1,0,83.5,37.4,83.5,83.5v0c0,46.1-37.4,83.5-83.5,83.5H98.1c-46.1,0-83.5-37.4-83.5-83.5
			v0C14.6,52.5,52,15.2,98.1,15.2z"/>
		<path class="st1" d="M118.1,90.8c-2.5-3.8-6.8-6.1-11.4-6.1c-8.1,0-13.4,6.4-13.4,14s5.6,14,13.4,14c2.8,0,5.6-0.8,8.1-2.3
			l3.2,5.7c-3.3,2.2-7.3,3.4-11.3,3.4c-11.6,0-20.4-8.9-20.4-20.8C86,87.4,95,78.1,106.3,77.9c0.1,0,0.2,0,0.3,0
			c6.9,0,13.3,3.4,17,9.1L118.1,90.8z"/>
		<path class="st1" d="M143.1,71c5.6,0,9.5,2.9,9.5,8.3c0,3.6-1.9,6.3-5.1,10.3l-7.4,9v13.1c0,0.6,0.1,0.9,0.5,0.9s0.5-0.1,0.8-0.7
			l13-20.3l5.4,3.4l-13,20.4c-2,3.2-4.2,4-7.1,4c-4.4,0-6-3-6-6.3v-7.8l-10.3,14.2l-5-3.7l15.3-20.6V80.9
			C133.7,74.9,137.3,71,143.1,71z M140.1,89l4-5.4c1-1.1,1.6-2.5,1.8-3.9c0.1-1.5-1.1-2.8-2.7-2.9c-0.1,0-0.1,0-0.2,0
			c-1.7,0-3,1.3-3,3L140.1,89z"/>
		<path class="st1" d="M175.6,91.6v20.2c0,0.6,0.1,0.9,0.5,0.9s0.5-0.1,0.8-0.7l12.9-20.4l5.4,3.4l-13,20.6c-2,3.2-4.2,4-7.1,4
			c-4.4,0-6-3-6-6.3V104l-9.8,15.8l-5.2-3.4l15.5-24.7H175.6z M173.2,79.5c2.4-0.1,4.4,1.7,4.5,4.1s-1.7,4.4-4.1,4.5
			c-0.1,0-0.3,0-0.4,0c-2.4-0.1-4.2-2.1-4.1-4.5C169.3,81.4,171,79.6,173.2,79.5z"/>
		<path class="st1" d="M210.4,105.2v-8.1h-0.5c-4.2,0-7.9,3-7.9,8.2c-0.2,4.3,3.1,7.9,7.4,8.1c0.2,0,0.3,0,0.5,0
			c2.8,0,5.4-0.9,9-6.5l3.5-5.6l5.4,3.4l-3.9,5.9c-4.8,7.3-9.5,9-13.9,9c-7.3,0-14.3-5.2-14.3-13.6c0-9.3,7-14.9,13.9-14.9
			c2.5,0,5,0.4,7.3,1.5v12.7H210.4z"/>
		<path class="st1" d="M240.6,119v-13.8l-10.3,14.2l-5-3.7l15.3-20.6V80.7c0-6,3.4-9.8,9.7-9.8c5.6,0,9.1,3.1,9.1,8.2
			s-4,9.3-7.4,13.3l-4.6,5.6l1.2,1.5c1.3-2.1,3-3.9,5-5.3c1.7-1.3,3.8-2,5.9-2c5.2,0,8.3,3.4,8.3,7.5c0,4.2-2.1,7.1-5.4,9.4
			c-1.2,0.9-2.4,1.6-3.8,2.3c1.3,1.5,2.3,2,3.4,2c1.8,0,3.3-1,6.3-5.2l3.9-5.3l5.1,3.6l-4.5,6c-3.5,4.6-6.4,6.8-10.6,6.8
			c-3.6,0-6.3-1.5-9.4-5.4l-5.8-7.2v12.2L240.6,119z M247,89.3l0.6-0.8c2.4-3,5.2-6.2,5.2-8.9c0.1-1.5-1-2.8-2.5-2.9
			c-0.1,0-0.2,0-0.3,0c-2,0-3,1.5-3,3.5L247,89.3z M252.4,104.1l2.5,3l2.9-1.8c1.9-1.2,3.5-2.6,3.5-4.6c0-1.3-1-2.3-2.2-2.4
			c0,0-0.1,0-0.1,0c-1.1,0-2.2,0.5-2.9,1.4C254.8,101.1,253.5,102.6,252.4,104.1L252.4,104.1z"/>
		<path class="st1" d="M326.6,119V99.3c0-1.6-0.4-1.9-1.1-1.9c-0.7,0-1.1,0.5-1.9,1.7L311,119h-6v-13.8l-10.3,14.2l-5-3.7L305,95.2
			V80.7c0-6,3.4-9.8,9.7-9.8c5.6,0,9.1,3.1,9.1,8.2s-4.2,9.2-7.5,13.2l-5,6.1v8.2l7-11c2.4-3.8,5.1-4.7,8-4.7c4.6,0,6.9,3.1,6.9,7.8
			v7.6l9.2-14.7l5.3,3.3l-15,24.1H326.6z M311.3,89.5l3.8-4.9c1.7-2.2,2.2-3.7,2.2-4.9c0.1-1.5-1-2.8-2.5-2.9c-0.1,0-0.2,0-0.3,0
			c-2,0-3.2,1.5-3.2,3.5V89.5z"/>
		<path class="st1" d="M362.3,113.5c3.4,0,6-0.7,10.5-7.2l3.2-4.7l5.2,3.5l-3.2,4.6c-6.2,9-11,9.9-15.5,9.9
			c-7.4,0-14.3-5.2-14.3-14.2c-0.1-7.8,6.2-14.2,14.1-14.3c0.1,0,0.2,0,0.3,0c4.5,0,8.8,1.9,11.8,5.3L362.3,113.5z M356.4,110.8
			l9.5-13.4c-1.1-0.4-2.3-0.6-3.4-0.6c-4.2,0-7.9,3.1-7.9,8.4C354.6,107.2,355.2,109.2,356.4,110.8z"/>
		<path class="st1" d="M380.6,115.3l6-9.4c2.5-3.6,3.8-7.9,3.7-12.3v-2h5.9v0.7c0,3.9,1.7,5.2,4,5.2s4-1.2,4-5.1v-0.8h6v14.6
			l9.5-15.1l5.5,3.4l-15.4,24.5h-6.1v-16.4c-1.3,0.6-2.7,0.9-4.1,0.9c-1.4,0-2.7-0.3-4-0.9c-0.6,2-1.6,3.9-2.8,5.6l-6.7,10.7
			L380.6,115.3z"/>
		<path class="st1" d="M439.8,113.5c3.4,0,6-0.7,10.5-7.2l3.2-4.7l5.2,3.5l-3.2,4.6c-6.2,9-11,9.9-15.5,9.9
			c-7.4,0-14.3-5.2-14.3-14.2c-0.1-7.8,6.2-14.2,14.1-14.3c0.1,0,0.2,0,0.3,0c4.5,0,8.8,1.9,11.8,5.3L439.8,113.5z M433.9,110.8
			l9.5-13.4c-1.1-0.4-2.3-0.6-3.4-0.6c-4.2,0-7.9,3.1-7.9,8.4C432,107.2,432.7,109.2,433.9,110.8z"/>
		<path class="st1" d="M466.6,111c2.4,0,4.3,1.9,4.3,4.3c0,2.4-1.9,4.3-4.3,4.3c0,0,0,0,0,0c-2.4,0-4.3-1.9-4.3-4.3
			C462.4,112.9,464.3,111,466.6,111z M463.4,106.8V78.3h6.9v28.5H463.4z"/>
	</g>
</g>
</svg>
