<svg xmlns="http://www.w3.org/2000/svg" viewBox="0 0 166.15 24.6"><defs><style>.cls-1{fill:#ff4089;}</style></defs><title>contact</title><g id="レイヤー_2" data-name="レイヤー 2"><g id="レイヤー_1-2" data-name="レイヤー 1"><path class="cls-1" d="M19.2,6.6A9,9,0,0,0,3,12.2a9,9,0,0,0,9,9.2,9.7,9.7,0,0,0,4.76-1.24l1.4,2.52A11.56,11.56,0,0,1,12,24.4,11.86,11.86,0,0,1,0,12.2,12,12,0,0,1,12,0a11.74,11.74,0,0,1,9.64,4.92Z"/><path class="cls-1" d="M19.24,22.72l6.36-10C28,9,30.8,7.92,33.32,7.92a7.91,7.91,0,0,1,7.84,5.84c0,.16,0,.32,0,.48l3.8-6,2.4,1.48L41,19.84c-2.16,3.4-4.88,4.56-7.68,4.56A7.94,7.94,0,0,1,25.6,19a3.52,3.52,0,0,1-.16-.8l-3.8,6.08Zm14.08-1a5.32,5.32,0,0,0,5.44-5.52,5.42,5.42,0,0,0-5.44-5.56,5.37,5.37,0,0,0-5.4,5.56A5.36,5.36,0,0,0,33.32,21.68Z"/><path class="cls-1" d="M57,24.2V12.32c0-1.12-.32-1.56-1.08-1.56s-1.16.56-1.72,1.48L46.48,24.6,44.08,23,51.72,10.8C53,8.68,54.44,7.92,56.2,7.92c2.48,0,3.64,1.72,3.64,4.16v6.4l4.8-7.68C66,8.68,67.4,7.92,69.12,7.92c2.51,0,3.63,1.72,3.63,4.16v6.6L79.19,8.32l2.36,1.44-9,14.44H69.88V12.32c0-1.12-.28-1.56-1.08-1.56s-1.12.56-1.72,1.48l-7.4,12H57Z"/><path class="cls-1" d="M90.48,10.84v9.08c0,1.12.56,1.76,1.4,1.76s1.44-.56,2.24-1.88L97,15.16l2.36,1.6-3,4.72c-1.24,2-2.68,3-4.64,3a3.74,3.74,0,0,1-4.12-4v-7l-7.12,11L78.2,23,87.64,8.6V2.36h2.84v5.8h9.24v2.68Z"/><path class="cls-1" d="M106.08,24.2a10.4,10.4,0,0,1-3.28-7.6c0-5.16,3.76-8.72,9.32-8.72a12.51,12.51,0,0,1,6.07,1.64V18.8l6.52-10.52L127,9.76l-9,14.44h-2.64V13.92L109.12,24.2Zm1.44-2.64,6.76-10.72a7.61,7.61,0,0,0-2.48-.36c-4,0-6.2,2.68-6.2,6A7.12,7.12,0,0,0,107.52,21.56Z"/><path class="cls-1" d="M136.52,15.68v-5a3,3,0,0,0-.84-.08,5.35,5.35,0,0,0-5.44,5.56,5.39,5.39,0,0,0,5.44,5.52c2,0,3.72-.72,5.8-4L143.67,14l2.4,1.52-2.4,3.76c-2.59,4-5.23,5.08-8,5.08a8,8,0,0,1-8.28-8,8.24,8.24,0,0,1,8.12-8.52,9.72,9.72,0,0,1,3.84.76v7Z"/><path class="cls-1" d="M156.92,10.84v9.08c0,1.12.56,1.76,1.39,1.76s1.44-.56,2.24-1.88l2.88-4.64,2.36,1.6-3,4.72c-1.24,2-2.68,3-4.63,3a3.74,3.74,0,0,1-4.12-4v-7l-7.12,11L144.64,23,154.08,8.6V2.36h2.84v5.8h9.23v2.68Z"/></g></g></svg>