<?xml version="1.0" encoding="utf-8"?>
<!-- Generator: Adobe Illustrator 23.0.3, SVG Export Plug-In . SVG Version: 6.00 Build 0)  -->
<svg version="1.1" id="レイヤー_1" xmlns="http://www.w3.org/2000/svg" xmlns:xlink="http://www.w3.org/1999/xlink" x="0px"
	 y="0px" viewBox="0 0 352.2 88.5" style="enable-background:new 0 0 352.2 88.5;" xml:space="preserve">
<style type="text/css">
	.st0{enable-background:new    ;}
	.st1{fill:#FE1E44;}
</style>
<title>moepiis</title>
<g>
	<g id="レイヤー_1-2">
		<g class="st0">
			<path class="st1" d="M16.8,30.8L6.9,61.9h-7.3l14.1-44.1h7.3l5.3,24.1L38,17.8h7.6l3.6,44.1h-7l-2.7-31.2L28.3,52.4h-6.8
				L16.8,30.8z"/>
			<path class="st1" d="M51,58.3L61.9,41c4.9-7.7,9.9-9.5,14.4-9.5c5.1,0,11.8,2.6,13.9,9.5l5.7-9l5.7,3.7L90.5,53.5
				c-4.4,6.9-9.2,9-14.2,9c-5.1,0-11.8-2.6-13.9-9.5L56.7,62L51,58.3z M76.3,55.7c5,0,8.2-3.8,8.2-8.7c0-5.1-3.5-8.9-8.2-8.9
				c-5,0-8.2,3.9-8.2,8.9C68.1,52.1,71.6,55.7,76.3,55.7z"/>
			<path class="st1" d="M116.5,55.9c3.5,0,6.3-0.8,11-7.8l3.3-5.1l5.5,3.8l-3.4,5c-6.6,9.7-11.5,10.7-16.2,10.7
				c-7.8,0-15-5.6-15-15.4c0-9.5,7.4-15.5,15-15.5c5.4,0,9.7,2.6,12.4,5.7L116.5,55.9z M110.3,53l9.9-14.5c-1.2-0.4-2.4-0.7-3.6-0.7
				c-4.4,0-8.2,3.3-8.2,9.1C108.4,49.3,109.1,51.4,110.3,53z"/>
			<path class="st1" d="M159.7,31.6c9,0,16.1,5,16.1,15.4c0,9-6.7,15.4-15.2,15.4c-1.5,0-2.8-0.1-3.9-0.4v16.9h-6.8V45.5l-10.2,17.2
				l-5.5-3.7l15.5-25.5C151.7,32.4,156.2,31.6,159.7,31.6z M156.6,38.3v17.2c1.1,0.2,2.4,0.4,3.7,0.4c4.9,0,8.7-3.2,8.7-8.9
				c0-5.1-3.2-9-9.2-9C158.6,38.1,157.6,38.1,156.6,38.3z"/>
			<path class="st1" d="M198.5,32.2v21.8c0,0.7,0.1,0.9,0.6,0.9c0.4,0,0.5-0.1,0.8-0.7l13.5-22.1l5.7,3.7l-13.6,22.3
				c-2.1,3.4-4.4,4.3-7.4,4.3c-4.6,0-6.3-3.3-6.3-6.8v-10l-10.3,17.1L176,59l16.2-26.8H198.5z M196,19.1c2.5,0,4.6,2.1,4.6,4.7
				c0,2.5-2,4.6-4.6,4.6c-2.3,0-4.4-2.1-4.4-4.6C191.7,21.2,193.7,19.1,196,19.1z"/>
			<path class="st1" d="M251.2,32.2v21.8c0,0.7,0.1,0.9,0.6,0.9c0.4,0,0.5-0.1,0.8-0.7l13.5-22.1l5.7,3.7l-13.6,22.3
				c-2.1,3.4-4.4,4.3-7.4,4.3c-4.6,0-6.3-3.3-6.3-6.8v-10l-10.3,17.1l-5.5-3.7L245,32.2H251.2z M248.8,19.1c2.5,0,4.6,2.1,4.6,4.7
				c0,2.5-2,4.6-4.6,4.6c-2.3,0-4.4-2.1-4.4-4.6C244.4,21.2,246.4,19.1,248.8,19.1z"/>
			<path class="st1" d="M265.6,57.9l18.5-25.6h7.1l5.8,13.9c0.8,2,1.7,4.3,1.7,7c0,5.2-3.4,9.5-9.5,9.5c-2.3,0-4.8-0.4-8.7-2.8
				l-1.6-0.9l3.4-5.8l1.6,1c2,1.3,3.2,2,4.8,2c2.1,0,3-1.5,3-3c0-1.2-0.5-2.5-1.3-4.7l-3.4-8.4l-15.9,22L265.6,57.9z"/>
			<path class="st1" d="M324.1,53.2c2.5,0,4.6,2.1,4.6,4.7c0,2.5-2,4.6-4.6,4.6c-2.3,0-4.4-2.1-4.4-4.6
				C319.7,55.3,321.8,53.2,324.1,53.2z"/>
			<path class="st1" d="M335.9,53.2c2.5,0,4.6,2.1,4.6,4.7c0,2.5-2,4.6-4.6,4.6c-2.3,0-4.4-2.1-4.4-4.6
				C331.5,55.3,333.5,53.2,335.9,53.2z"/>
			<path class="st1" d="M347.6,53.2c2.5,0,4.6,2.1,4.6,4.7c0,2.5-2,4.6-4.6,4.6c-2.3,0-4.4-2.1-4.4-4.6
				C343.3,55.3,345.3,53.2,347.6,53.2z"/>
		</g>
	</g>
</g>
</svg>
