<svg xmlns="http://www.w3.org/2000/svg" viewBox="0 0 140.92 42.55"><defs><style>.cls-1{fill:#ff4089;}</style></defs><title>profile</title><g id="レイヤー_2" data-name="レイヤー 2"><g id="レイヤー_1-2" data-name="レイヤー 1"><path class="cls-1" d="M0,4.08H9.36c4.44,0,7.2,3,7.2,6.72,0,3.44-2.88,6.72-7.44,6.72H3V28.08H0ZM3,7v7.6H9.08c2.8,0,4.44-1.72,4.44-3.8A3.85,3.85,0,0,0,9.36,7Z"/><path class="cls-1" d="M15.88,26.44l3.8-6.08a11.61,11.61,0,0,0,2.16-6.88V12h2.6v.68c0,2.08,1.12,3.16,2.64,3.16s2.68-1,2.68-3.08V12h2.68v10.4L38.92,12l2.44,1.48L32.24,28.08H29.52V17.72a4.33,4.33,0,0,1-2.64.84,4.44,4.44,0,0,1-2.72-.92,10.73,10.73,0,0,1-1.72,3.8l-4.12,6.64Z"/><path class="cls-1" d="M38.2,26.6l6.36-10c2.44-3.76,5.2-4.8,7.72-4.8a7.91,7.91,0,0,1,7.84,5.84c0,.16,0,.32,0,.48l3.8-6,2.4,1.48L60,23.72c-2.16,3.4-4.88,4.56-7.68,4.56a7.94,7.94,0,0,1-7.72-5.44,3.52,3.52,0,0,1-.16-.8l-3.8,6.08Zm14.08-1A5.32,5.32,0,0,0,57.72,20a5.42,5.42,0,0,0-5.44-5.56A5.37,5.37,0,0,0,46.88,20,5.36,5.36,0,0,0,52.28,25.56Z"/><path class="cls-1" d="M74.88,14.72V37.19a5,5,0,0,1-5.28,5.36c-3,0-5.08-2-5.08-4.76a6.83,6.83,0,0,1,1.72-4.28L72,25.84V17.72L65.16,28.4l-2.32-1.48,9.2-14V8.8c0-4.36,2.68-7,7.64-7h2.56V4.44h-2.8c-3.28,0-4.56,2-4.56,4.48V12h6.6v2.68ZM72,37.27V30.4l-3.8,5a3.73,3.73,0,0,0-.88,2.2,2.25,2.25,0,0,0,2.32,2.24A2.35,2.35,0,0,0,72,37.27Z"/><path class="cls-1" d="M89.2,12V24.12c0,.68.12,1.2.76,1.2s.92-.52,1.28-1.16l7.56-12,2.4,1.48L93.64,25.72c-1.12,1.8-2.28,2.56-4,2.56-2.4,0-3.28-1.68-3.28-3.52V17.52L79.68,28.4l-2.32-1.48L86.56,12Zm-1-6.48a2,2,0,0,1,2,2,2,2,0,0,1-2,1.92,1.94,1.94,0,0,1,0-3.88Z"/><path class="cls-1" d="M111.88,0c3,0,5.08,1.64,5.08,4.56,0,1.88-.92,3.32-2.6,5.44l-4.8,5.92v8.24c0,.72.24,1.12.76,1.12s1-.48,1.36-1.16l7.52-12,2.4,1.48-7.56,12c-1.16,1.84-2.32,2.56-4,2.56-2.32,0-3.28-1.68-3.28-3.48v-6l-7,9.48-2.2-1.6,9.24-12.24V5.56C106.76,2.24,108.72,0,111.88,0Zm-2.32,11.72,3.32-4.32A4.89,4.89,0,0,0,114,4.76a2.08,2.08,0,0,0-2.16-2.16,2.31,2.31,0,0,0-2.32,2.48Z"/><path class="cls-1" d="M128.92,25.48a5.43,5.43,0,0,0,1.16.12c2.2,0,4-.64,6.4-4.24l2.12-3.28,2.32,1.52-2.12,3.2c-3.24,4.68-5.88,5.48-8.64,5.48a8.05,8.05,0,0,1-8.28-8.2,8.24,8.24,0,0,1,8.28-8.28,8.87,8.87,0,0,1,6.4,2.68Zm-2.52-1.32L132.84,15a6.93,6.93,0,0,0-2.68-.64A5.43,5.43,0,0,0,124.72,20,5.54,5.54,0,0,0,126.4,24.16Z"/></g></g></svg>