<svg xmlns="http://www.w3.org/2000/svg" viewBox="0 0 106.23 28.28"><defs><style>.cls-1{fill:#ff4089;}</style></defs><title>work</title><g id="レイヤー_2" data-name="レイヤー 2"><g id="レイヤー_1-2" data-name="レイヤー 1"><path class="cls-1" d="M17.68,28.08l-3-17.88L8.28,28.08H4.84L0,4.08H3L7,23.64,14,4.08h2.76l3.12,19.44,8.4-19.44h3.11l-10.47,24Z"/><path class="cls-1" d="M28.56,26.6l6.36-10c2.44-3.76,5.2-4.8,7.72-4.8a7.91,7.91,0,0,1,7.84,5.84c0,.16,0,.32,0,.48l3.8-6,2.4,1.48-6.4,10.08c-2.16,3.4-4.88,4.56-7.68,4.56a7.94,7.94,0,0,1-7.72-5.44,3.52,3.52,0,0,1-.16-.8L31,28.12Zm14.08-1A5.32,5.32,0,0,0,48.08,20a5.42,5.42,0,0,0-5.44-5.56A5.37,5.37,0,0,0,37.24,20,5.36,5.36,0,0,0,42.64,25.56Z"/><path class="cls-1" d="M54.16,26.44,58,20.36a11.61,11.61,0,0,0,2.16-6.88V12h2.6v.68c0,2.08,1.12,3.16,2.64,3.16S68,14.84,68,12.8V12h2.68v10.4L77.2,12l2.44,1.48L70.52,28.08H67.8V17.72a4.33,4.33,0,0,1-2.64.84,4.44,4.44,0,0,1-2.72-.92,10.73,10.73,0,0,1-1.72,3.8L56.6,28.08Z"/><path class="cls-1" d="M85.32,28.08V18.8l-7,9.48L76,26.68l9.28-12.24v-9C85.32,2.12,87.2,0,90.56,0c3,0,5,1.76,5,4.56,0,2.52-1.88,4.6-3.6,6.72l-3.6,4.4,1.16,1.44A16.85,16.85,0,0,1,92,14.24a5.61,5.61,0,0,1,4.16-1.92,4.27,4.27,0,0,1,4.6,4.36c0,2.28-1.2,4-3.72,5.08a30.54,30.54,0,0,1-2.92,1.12l1,1.24c.88,1.08,1.56,1.48,2.4,1.48,1.16,0,2-.6,3.64-2.92l2.8-4,2.23,1.6-3,4.32c-1.84,2.56-3.28,3.64-5.52,3.64-2,0-3.32-.8-5-2.88l-4.56-5.8v8.52Zm2.8-16.2L90,9.56c1.32-1.68,2.64-3.4,2.64-4.8A2.05,2.05,0,0,0,90.44,2.6c-1.44,0-2.32,1.08-2.32,2.68Zm3,7.32,1.36,1.68c.68-.28,2.44-.8,2.72-1,1.64-.64,2.72-1.44,2.72-3a1.91,1.91,0,0,0-2-2,3,3,0,0,0-2.28,1.2C93.36,16.48,92,18.12,91.16,19.2Z"/></g></g></svg>